<svg xmlns="http://www.w3.org/2000/svg" viewBox="0 0 48 48" role="img" aria-labelledby="title"><title id="title">飞书</title><path fill="#00D6B9" d="M41.072 5.994 3.311 16.519l9.075 9.294 8.414.146 9.683-9.44c-.256-.525-.384-.964-.384-1.318 0-.794.311-1.422.796-1.868.829-.763 1.827-.877 2.994-.342z"/><path fill="#1450C9" d="m42.102 6.728-10.525 37.76-9.293-9.074L22.137 27l9.375-9.518c.508.363 1.062.528 1.664.495.902-.05 1.485-.596 1.759-.917.273-.321.594-.855.568-1.649-.018-.529-.192-1.017-.522-1.464z"/></svg>
